<?xml version="1.0" encoding="UTF-8"?>
<!DOCTYPE svg PUBLIC "-//W3C//DTD SVG 1.1//EN" "http://www.w3.org/Graphics/SVG/1.1/DTD/svg11.dtd">
<!-- Creator: CorelDRAW 2021 (64-Bit) -->
<svg xmlns="http://www.w3.org/2000/svg" xml:space="preserve" width="1.58044in" height="1.39144in" version="1.1" style="shape-rendering:geometricPrecision; text-rendering:geometricPrecision; image-rendering:optimizeQuality; fill-rule:evenodd; clip-rule:evenodd"
viewBox="0 0 5.96 5.25"
 xmlns:xlink="http://www.w3.org/1999/xlink"
 xmlns:xodm="http://www.corel.com/coreldraw/odm/2003">
 <defs>
  <style type="text/css">
   <![CDATA[
    .fil0 {fill:#666666}
    .fil2 {fill:#00ACEA;fill-rule:nonzero}
    .fil1 {fill:#666666;fill-rule:nonzero}
   ]]>
  </style>
 </defs>
 <g id="Layer_x0020_1">
  <metadata id="CorelCorpID_0Corel-Layer"/>
  <g id="_2028121897776">
   <path class="fil0" d="M1.95 4.78c-0.44,-0.36 -0.74,-0.9 -0.77,-1.51l0.14 -0.07c0.94,-0.49 1.99,-0.75 3.05,-0.79 0.08,-0 0.17,-0 0.26,-0 0.08,0 0.16,0 0.24,0 0.01,0 0.02,0 0.03,0 0.05,0 0.1,0 0.15,0.01l0.15 0.01 -0.03 0.01c-1.21,0.54 -2.31,1.33 -3.21,2.31l-0.02 0.03z"/>
   <path class="fil1" d="M2.45 0.58c-0.01,0.01 -0.47,0.42 -0.71,0.65 -0.04,0.04 -0.08,0.07 -0.12,0.11 -0.34,0.34 -0.73,0.77 -0.86,1.11 0,0 0.01,-0.08 -0,-0.1 -0.1,0.01 -0.68,1.01 -0.18,1.18 0.09,0.03 0.2,0.04 0.33,0.03 0.02,0.1 0.04,0.2 0.07,0.29 -0.03,0 -0.05,0.01 -0.08,0.01 -0.12,0.01 -0.24,0.01 -0.36,-0.01 -0.06,-0.01 -0.12,-0.03 -0.19,-0.05 -0.06,-0.02 -0.12,-0.06 -0.17,-0.11 -0.03,-0.02 -0.05,-0.05 -0.07,-0.08 -0.02,-0.03 -0.04,-0.06 -0.05,-0.09 -0.03,-0.06 -0.04,-0.13 -0.04,-0.2 -0.01,-0.13 0.02,-0.26 0.06,-0.37 0.04,-0.12 0.1,-0.22 0.16,-0.32 0.12,-0.2 0.27,-0.38 0.42,-0.56 0.15,-0.17 0.32,-0.33 0.49,-0.49 0.17,-0.16 0.34,-0.31 0.52,-0.45 0.52,-0.39 0.79,-0.53 0.81,-0.54z"/>
   <path class="fil1" d="M2.93 0.72l0.05 -0.05 -0.04 -0.18 0.04 -0.04c0.01,-0.01 0.01,-0.03 0,-0.04l0 0c-0.01,-0.01 -0.03,-0.01 -0.04,0l-0.01 0.01 -0.04 -0.18 0.06 -0.05c0.05,-0.04 0.08,-0.1 0.1,-0.16 0.01,-0.03 -0.02,-0.05 -0.04,-0.04 -0.06,0.02 -0.11,0.06 -0.16,0.1l-0.05 0.06 -0.18 -0.04 0.01 -0.01c0.01,-0.01 0.01,-0.03 0,-0.04 -0.01,-0.01 -0.03,-0.01 -0.04,0l-0.04 0.04 -0.18 -0.04 -0.05 0.05 0.32 0.2 -0.09 0.1 -0.16 -0.03 -0.03 0.03 0.12 0.07 -0.01 0.01c-0.02,0.02 -0.02,0.04 0,0.06l0 0c0.02,0.02 0.04,0.02 0.06,0l0.01 -0.01 0.07 0.12 0.03 -0.03 -0.03 -0.16 0.1 -0.09 0.2 0.32z"/>
   <path class="fil2" d="M5.23 3.86c-0.23,0.65 -0.76,1.12 -1.38,1.3 0.22,-0.33 0.56,-1.17 0.56,-1.18 -0.16,0.3 -0.77,1.06 -1.16,1.27 -0.23,-0 -0.47,-0.04 -0.7,-0.12 -0.12,-0.04 -0.24,-0.1 -0.35,-0.16 0.87,-0.95 1.93,-1.71 3.1,-2.24 0.08,0.37 0.06,0.76 -0.08,1.14zm-0.16 -1.75c-0.05,-0 -0.11,-0.01 -0.16,-0.01 -0.01,-0 -0.02,-0 -0.03,-0 -0.08,-0 -0.17,-0 -0.25,-0 -0.09,-0 -0.18,0 -0.27,0 -1.1,0.04 -2.2,0.31 -3.18,0.82 0.02,-0.16 0.05,-0.31 0.11,-0.47 0.03,-0.1 0.08,-0.19 0.12,-0.28 0.19,-0.17 1.04,-0.65 1.72,-0.89 0,0 -0.74,0.1 -1.18,0.24 0.48,-0.38 1.12,-0.55 1.74,-0.41 0.09,0.02 0.18,0.05 0.27,0.08 0.1,0.04 0.2,0.08 0.29,0.13 0.05,0.02 0.09,0.05 0.13,0.08 0.15,0.1 0.29,0.22 0.41,0.35 0.03,0.04 0.07,0.08 0.1,0.12 0.03,0.04 0.07,0.09 0.1,0.13 0.03,0.04 0.05,0.08 0.08,0.12z"/>
   <path class="fil1" d="M4.04 0.86c0.49,0.08 0.83,0.33 1.07,0.76 -0.28,-0.4 -0.64,-0.65 -1.07,-0.76zm1.49 0.32l-0.43 -0.7 -1.61 -0.35 0.42 0.68 -0.11 0.15c0.09,0.02 0.17,0.04 0.26,0.07 0.1,0.04 0.2,0.08 0.3,0.13 0.05,0.02 0.09,0.05 0.14,0.08 0.16,0.1 0.3,0.22 0.43,0.36 0.04,0.04 0.07,0.08 0.1,0.12 0.03,0.04 0.06,0.08 0.08,0.11l0.09 -0.12 0.33 0.07 0.12 0.03 0.03 0.01 0.07 0.02 0.23 0.05 -0.43 -0.7z"/>
  </g>
 </g>
</svg>
