<?xml version="1.0" encoding="UTF-8"?>
<!DOCTYPE svg PUBLIC "-//W3C//DTD SVG 1.1//EN" "http://www.w3.org/Graphics/SVG/1.1/DTD/svg11.dtd">
<!-- Creator: CorelDRAW 2021 (64-Bit) -->
<svg xmlns="http://www.w3.org/2000/svg" xml:space="preserve" width="8.04553in" height="1.83663in" version="1.1" style="shape-rendering:geometricPrecision; text-rendering:geometricPrecision; image-rendering:optimizeQuality; fill-rule:evenodd; clip-rule:evenodd"
viewBox="0 0 1506.38 343.88"
 xmlns:xlink="http://www.w3.org/1999/xlink"
 xmlns:xodm="http://www.corel.com/coreldraw/odm/2003">
 <defs>
  <style type="text/css">
   <![CDATA[
    .fil2 {fill:#666666}
    .fil1 {fill:#00ACEA;fill-rule:nonzero}
    .fil0 {fill:#666666;fill-rule:nonzero}
   ]]>
  </style>
 </defs>
 <g id="Layer_x0020_1">
  <metadata id="CorelCorpID_0Corel-Layer"/>
  <g id="_2509224621296">
   <g>
    <path class="fil0" d="M442.29 205.42l0 -50.32 6.9 0 45.07 50.32 41.54 0 -47.24 -50.32 11.01 -0.18 0 0.18c21.78,0 39.53,-17.75 39.53,-39.53 0,-21.78 -17.82,-39.53 -39.53,-39.53l-56.56 0c-22.62,0 -28,22.88 -28,26.72l84.55 0c7.14,0 12.81,5.67 12.81,12.81 0,7.14 -5.74,12.81 -12.81,12.81l-57.29 0c-3.59,0 -26.54,4.28 -26.54,22.51l0 32.02c0,18.06 22.87,22.51 26.54,22.51z"/>
    <path class="fil0" d="M584.36 153.61l70.27 0 0 51.79c3.66,0 26.53,-5.31 26.53,-28.18l0 -72.89c0,-22.97 -22.88,-28.31 -26.53,-28.31l0 51.06 -70.27 0 0 -51.06c-3.84,0 -26.72,5.34 -26.72,28.31l0 72.89c0,22.87 22.88,28.18 26.72,28.18l0 -51.79z"/>
    <path class="fil0" d="M823.06 102.7c0,-3.84 -5.31,-26.72 -28.18,-26.72l-66.98 0c-22.87,0 -28.18,22.88 -28.18,26.72l0 75.94c0,3.84 5.31,26.72 28.18,26.72l66.98 0c22.88,0 28.18,-22.87 28.18,-26.72l0 -75.94zm-96.81 75.94l0 -75.94 70.28 0 0 75.94 -70.28 0z"/>
    <path class="fil1" d="M1053.7 205.33l0 -102.11c-2.01,3.66 -5.12,7.14 -9.7,10.06 -9.15,5.86 -18.3,11.35 -27.27,17.02 -19.58,12.08 -36.05,-4.57 -38.06,-7.87l42.46 -26.17 32.57 -20.5c3.84,0 26.72,5.31 26.72,28.18l0 73.2c0,22.87 -22.88,28.18 -26.72,28.18z"/>
    <path class="fil0" d="M994.77 154.28c-42.27,-25.99 -84.54,-51.97 -126.63,-78.51 -3.66,0 -26.54,5.31 -26.54,28.18l0 73.01c0,22.88 22.88,28.18 26.54,28.18l0 -101.74c2.01,3.48 5.12,6.95 9.7,9.88l23.06 14.46 55.81 34.04c19.4,12.26 36.05,-4.21 38.06,-7.5z"/>
    <path class="fil0" d="M1098.96 178.58c0,3.83 5.31,26.72 28.18,26.72l56.4 0 0 -0.37c21.41,0 38.98,-17.39 38.98,-38.8 0,-9.7 -3.66,-18.66 -9.7,-25.62 6.04,-6.77 9.7,-15.74 9.7,-25.53 0,-21.68 -17.57,-39.07 -39.16,-39.07l-56.21 0c-22.87,0 -28.18,22.88 -28.18,26.54l0 76.13zm26.72 -24.52l57.86 0c6.95,0 12.44,5.12 12.44,12.08 0,6.77 -5.49,12.45 -12.44,12.45l-57.86 0 0 -24.52zm0 -26.72l0 -24.89 57.67 0c6.96,0 12.45,5.52 12.45,12.54 0,6.28 -4.72,12.35 -10.98,12.35l-59.14 0z"/>
    <path class="fil0" d="M1337.94 178.55l-70.16 0 0 -102.66c-3.84,0 -26.72,5.31 -26.72,28.18l0 73.01c0,22.87 22.88,28.18 26.72,28.18l70.16 0c3.66,0 26.54,-5.31 26.54,-28.18l0 -73.01c0,-22.87 -22.87,-28.18 -26.54,-28.18l0 102.66z"/>
    <path class="fil0" d="M1479.66 153.82l0 24.7 -96.63 0c0,3.84 5.31,26.72 28.18,26.72l66.98 0c22.87,0 28.18,-22.87 28.18,-26.72l0 -24.7c0,-3.84 -5.31,-26.54 -28.18,-26.54l-68.45 0 0 -24.7 92.05 0c0,-3.84 -5.31,-26.72 -28.18,-26.72l-62.41 0c-22.87,0 -28.18,22.88 -28.18,26.72l0 24.7c0,3.65 5.31,26.54 28.18,26.54l68.45 0z"/>
   </g>
   <g>
    <path class="fil0" d="M481.18 236.88l24.58 0 0 4.28 -20.3 0 0 9.19 15.79 0 0 4.28 -15.79 0 0 9.19 20.3 0 0 4.28 -24.58 0 0 -31.22zm31.36 26.94l7.98 0c2.2,0 4.09,-0.79 5.66,-2.36 1.58,-1.58 2.36,-3.45 2.36,-5.62l0 -6.69c0,-2.17 -0.79,-4.04 -2.36,-5.62 -1.58,-1.58 -3.46,-2.36 -5.66,-2.36l-7.98 0 0 22.66zm-4.28 -26.94l12.27 0c3.39,0 6.29,1.2 8.7,3.61 2.41,2.41 3.61,5.29 3.61,8.65l0 6.69c0,3.36 -1.2,6.24 -3.61,8.65 -2.41,2.41 -5.31,3.61 -8.7,3.61l-12.27 0 0 -31.22zm27.07 0l4.28 0 0 18.96c0,2.17 0.79,4.04 2.36,5.62 1.58,1.58 3.46,2.36 5.64,2.36 2.19,0 4.07,-0.79 5.64,-2.36 1.58,-1.58 2.36,-3.45 2.36,-5.62l0 -18.96 4.28 0 0 18.96c0,3.36 -1.2,6.24 -3.61,8.65 -2.41,2.41 -5.3,3.61 -8.68,3.61 -3.37,0 -6.27,-1.2 -8.68,-3.61 -2.41,-2.41 -3.61,-5.29 -3.61,-8.65l0 -18.96zm51.65 26.94l0 4.28 -12.31 0c-3.36,0 -6.24,-1.2 -8.65,-3.61 -2.41,-2.41 -3.61,-5.29 -3.61,-8.65l0 -6.69c0,-3.36 1.2,-6.24 3.61,-8.65 2.41,-2.41 5.29,-3.61 8.65,-3.61l12.31 0 0 4.28 -12.31 0c-2.17,0 -4.04,0.79 -5.62,2.36 -1.58,1.58 -2.36,3.45 -2.36,5.62l0 6.69c0,2.17 0.79,4.04 2.36,5.62 1.58,1.58 3.45,2.36 5.62,2.36l12.31 0zm21.9 -9.19l0 -5.49c0,-2.17 -0.79,-4.04 -2.36,-5.62 -1.58,-1.58 -3.46,-2.36 -5.64,-2.36 -2.19,0 -4.07,0.79 -5.64,2.36 -1.58,1.58 -2.36,3.45 -2.36,5.62l0 5.49 16.01 0zm-16.01 13.47l-4.28 0 0 -18.96c0,-3.36 1.2,-6.24 3.61,-8.65 2.41,-2.41 5.3,-3.61 8.68,-3.61 3.38,0 6.27,1.2 8.68,3.61 2.41,2.41 3.61,5.29 3.61,8.65l0 18.96 -4.28 0 0 -9.19 -16.01 0 0 9.19zm29.97 -26.94l-10.13 0 0 -4.28 24.58 0 0 4.28 -10.17 0 0 26.94 -4.28 0 0 -26.94zm21.23 26.94l-4.28 0 0 -31.22 4.28 0 0 31.22zm2.54 -12.27l0 -6.69c0,-3.36 1.2,-6.24 3.61,-8.65 2.41,-2.41 5.3,-3.61 8.68,-3.61 3.38,0 6.27,1.2 8.68,3.61 2.41,2.41 3.61,5.29 3.61,8.65l0 6.69c0,3.36 -1.2,6.24 -3.61,8.65 -2.41,2.41 -5.3,3.61 -8.68,3.61 -3.37,0 -6.27,-1.2 -8.68,-3.61 -2.41,-2.41 -3.61,-5.29 -3.61,-8.65zm20.3 0l0 -6.69c0,-2.17 -0.79,-4.04 -2.36,-5.62 -1.58,-1.58 -3.46,-2.36 -5.64,-2.36 -2.19,0 -4.07,0.79 -5.64,2.36 -1.58,1.58 -2.36,3.45 -2.36,5.62l0 6.69c0,2.17 0.79,4.04 2.36,5.62 1.58,1.58 3.46,2.36 5.64,2.36 2.19,0 4.07,-0.79 5.64,-2.36 1.58,-1.58 2.36,-3.45 2.36,-5.62zm6.78 -18.96l5.13 0c2.2,3.39 4.88,7.52 8.03,12.38 3.15,4.86 5.53,8.53 7.14,11l0 -23.37 4.28 0 0 31.22 -4.28 0 -16.01 -24.62 0 24.62 -4.28 0 0 -31.22zm61.82 17.75l0 -5.49c0,-2.17 -0.79,-4.04 -2.36,-5.62 -1.58,-1.58 -3.46,-2.36 -5.64,-2.36 -2.19,0 -4.07,0.79 -5.64,2.36 -1.58,1.58 -2.36,3.45 -2.36,5.62l0 5.49 16.01 0zm-16.01 13.47l-4.28 0 0 -18.96c0,-3.36 1.2,-6.24 3.61,-8.65 2.41,-2.41 5.3,-3.61 8.68,-3.61 3.38,0 6.27,1.2 8.68,3.61 2.41,2.41 3.61,5.29 3.61,8.65l0 18.96 -4.28 0 0 -9.19 -16.01 0 0 9.19zm22.79 -31.22l5.13 0c2.2,3.39 4.88,7.52 8.03,12.38 3.15,4.86 5.53,8.53 7.14,11l0 -23.37 4.28 0 0 31.22 -4.28 0 -16.01 -24.62 0 24.62 -4.28 0 0 -31.22zm31.36 26.94l7.98 0c2.2,0 4.09,-0.79 5.66,-2.36 1.58,-1.58 2.36,-3.45 2.36,-5.62l0 -6.69c0,-2.17 -0.79,-4.04 -2.36,-5.62 -1.58,-1.58 -3.46,-2.36 -5.66,-2.36l-7.98 0 0 22.66zm-4.28 -26.94l12.27 0c3.39,0 6.29,1.2 8.7,3.61 2.41,2.41 3.61,5.29 3.61,8.65l0 6.69c0,3.36 -1.2,6.24 -3.61,8.65 -2.41,2.41 -5.31,3.61 -8.7,3.61l-12.27 0 0 -31.22zm45.81 31.22l-4.28 0 0 -31.22 4.28 0 0 31.22zm2.54 -31.22l3.7 0 11.91 20.61 11.91 -20.61 3.7 0 0 31.22 -4.28 0 0 -21.63 -11.33 19.58c-1.07,-1.84 -4.85,-8.37 -11.33,-19.58l0 21.63 -4.28 0 0 -31.22zm33.77 0l3.7 0 11.91 20.61 11.91 -20.61 3.7 0 0 31.22 -4.28 0 0 -21.63 -11.33 19.58c-1.07,-1.84 -4.85,-8.37 -11.33,-19.58l0 21.63 -4.28 0 0 -31.22zm38.05 31.22l-4.28 0 0 -31.22 4.28 0 0 31.22zm22.84 -13.47l-8.03 0 0 -4.28 12.31 0 0 17.75 -12.31 0c-3.36,0 -6.24,-1.2 -8.65,-3.61 -2.41,-2.41 -3.61,-5.29 -3.61,-8.65l0 -6.69c0,-3.36 1.2,-6.24 3.61,-8.65 2.41,-2.41 5.29,-3.61 8.65,-3.61l12.31 0 0 4.28 -12.31 0c-2.17,0 -4.04,0.79 -5.62,2.36 -1.58,1.58 -2.36,3.45 -2.36,5.62l0 6.69c0,2.17 0.79,4.04 2.36,5.62 1.58,1.58 3.45,2.36 5.62,2.36l8.03 0 0 -9.19zm11.06 -4.28c1.28,0 3.18,0 5.71,0 2.53,0 4.43,0 5.71,0 1.25,0 2.33,-0.45 3.23,-1.36 0.91,-0.91 1.36,-1.99 1.36,-3.23 0,-1.25 -0.45,-2.33 -1.36,-3.23 -0.91,-0.91 -1.98,-1.36 -3.23,-1.36l-11.42 0 0 9.19zm-4.28 -13.47l15.7 0c2.44,0 4.53,0.87 6.27,2.61 1.74,1.74 2.61,3.83 2.61,6.27 0,2.71 -1.04,4.95 -3.12,6.74 2.08,1.78 3.12,4.03 3.12,6.74l0 8.88 -4.28 0 0 -8.88c0,-1.25 -0.45,-2.33 -1.36,-3.23 -0.91,-0.91 -1.98,-1.36 -3.23,-1.36l-11.42 0 0 13.47 -4.28 0 0 -31.22zm47.06 17.75l0 -5.49c0,-2.17 -0.79,-4.04 -2.36,-5.62 -1.58,-1.58 -3.46,-2.36 -5.64,-2.36 -2.19,0 -4.07,0.79 -5.64,2.36 -1.58,1.58 -2.36,3.45 -2.36,5.62l0 5.49 16.01 0zm-16.01 13.47l-4.28 0 0 -18.96c0,-3.36 1.2,-6.24 3.61,-8.65 2.41,-2.41 5.3,-3.61 8.68,-3.61 3.37,0 6.27,1.2 8.68,3.61 2.41,2.41 3.61,5.29 3.61,8.65l0 18.96 -4.28 0 0 -9.19 -16.01 0 0 9.19zm29.97 -26.94l-10.13 0 0 -4.28 24.58 0 0 4.28 -10.17 0 0 26.94 -4.28 0 0 -26.94zm21.23 26.94l-4.28 0 0 -31.22 4.28 0 0 31.22zm2.54 -12.27l0 -6.69c0,-3.36 1.2,-6.24 3.61,-8.65 2.41,-2.41 5.3,-3.61 8.68,-3.61 3.37,0 6.27,1.2 8.68,3.61 2.41,2.41 3.61,5.29 3.61,8.65l0 6.69c0,3.36 -1.2,6.24 -3.61,8.65 -2.41,2.41 -5.3,3.61 -8.68,3.61 -3.38,0 -6.27,-1.2 -8.68,-3.61 -2.41,-2.41 -3.61,-5.29 -3.61,-8.65zm20.29 0l0 -6.69c0,-2.17 -0.79,-4.04 -2.36,-5.62 -1.58,-1.58 -3.46,-2.36 -5.64,-2.36 -2.19,0 -4.07,0.79 -5.64,2.36 -1.58,1.58 -2.36,3.45 -2.36,5.62l0 6.69c0,2.17 0.79,4.04 2.36,5.62 1.58,1.58 3.46,2.36 5.64,2.36 2.19,0 4.07,-0.79 5.64,-2.36 1.58,-1.58 2.36,-3.45 2.36,-5.62zm6.78 -18.96l5.13 0c2.2,3.39 4.88,7.52 8.03,12.38 3.15,4.86 5.53,8.53 7.14,11l0 -23.37 4.28 0 0 31.22 -4.28 0 -16.01 -24.62 0 24.62 -4.28 0 0 -31.22zm44.14 15.14c-1.74,-1.74 -2.61,-3.83 -2.61,-6.27 0,-2.44 0.87,-4.53 2.61,-6.27 1.74,-1.74 3.83,-2.61 6.27,-2.61l6.82 0c2.44,0 4.53,0.87 6.27,2.61 1.74,1.74 2.61,3.83 2.61,6.27l-4.28 0c0,-1.25 -0.45,-2.33 -1.36,-3.23 -0.91,-0.91 -1.99,-1.36 -3.23,-1.36l-6.82 0c-1.25,0 -2.33,0.45 -3.23,1.36 -0.91,0.91 -1.36,1.98 -1.36,3.23 0,1.25 0.45,2.33 1.36,3.23 0.91,0.91 1.99,1.36 3.23,1.36l6.82 0c2.44,0 4.53,0.87 6.27,2.61 1.74,1.74 2.61,3.83 2.61,6.27 0,2.44 -0.87,4.53 -2.61,6.27 -1.74,1.74 -3.83,2.61 -6.27,2.61l-6.82 0c-2.44,0 -4.53,-0.87 -6.27,-2.61 -1.74,-1.74 -2.61,-3.83 -2.61,-6.27l4.28 0c0,1.25 0.45,2.33 1.36,3.23 0.91,0.91 1.99,1.36 3.23,1.36l6.82 0c1.25,0 2.33,-0.45 3.23,-1.36 0.91,-0.91 1.36,-1.99 1.36,-3.23 0,-1.25 -0.45,-2.33 -1.36,-3.23 -0.91,-0.91 -1.99,-1.36 -3.23,-1.36l-6.82 0c-2.44,0 -4.53,-0.87 -6.27,-2.61zm24.47 -15.14l24.58 0 0 4.28 -20.29 0 0 9.19 15.79 0 0 4.28 -15.79 0 0 9.19 20.29 0 0 4.28 -24.58 0 0 -31.22zm31.36 13.47c1.28,0 3.18,0 5.71,0 2.53,0 4.43,0 5.71,0 1.25,0 2.33,-0.45 3.23,-1.36 0.91,-0.91 1.36,-1.99 1.36,-3.23 0,-1.25 -0.45,-2.33 -1.36,-3.23 -0.91,-0.91 -1.99,-1.36 -3.23,-1.36l-11.42 0 0 9.19zm-4.28 -13.47l15.7 0c2.44,0 4.53,0.87 6.27,2.61 1.74,1.74 2.61,3.83 2.61,6.27 0,2.71 -1.04,4.95 -3.12,6.74 2.08,1.78 3.12,4.03 3.12,6.74l0 8.88 -4.28 0 0 -8.88c0,-1.25 -0.45,-2.33 -1.36,-3.23 -0.91,-0.91 -1.99,-1.36 -3.23,-1.36l-11.42 0 0 13.47 -4.28 0 0 -31.22zm24.53 0l4.28 0 7.98 24.62 8.03 -24.62 4.28 0 -10.17 31.22 -4.28 0 -10.13 -31.22zm31.36 31.22l-4.28 0 0 -31.22 4.28 0 0 31.22zm27.12 -4.28l0 4.28 -12.31 0c-3.36,0 -6.24,-1.2 -8.65,-3.61 -2.41,-2.41 -3.61,-5.29 -3.61,-8.65l0 -6.69c0,-3.36 1.2,-6.24 3.61,-8.65 2.41,-2.41 5.29,-3.61 8.65,-3.61l12.31 0 0 4.28 -12.31 0c-2.17,0 -4.04,0.79 -5.62,2.36 -1.58,1.58 -2.36,3.45 -2.36,5.62l0 6.69c0,2.17 0.79,4.04 2.36,5.62 1.58,1.58 3.45,2.36 5.62,2.36l12.31 0zm2.5 -26.94l24.58 0 0 4.28 -20.3 0 0 9.19 15.79 0 0 4.28 -15.79 0 0 9.19 20.3 0 0 4.28 -24.58 0 0 -31.22zm27.72 15.14c-1.74,-1.74 -2.61,-3.83 -2.61,-6.27 0,-2.44 0.87,-4.53 2.61,-6.27 1.74,-1.74 3.83,-2.61 6.27,-2.61l6.82 0c2.44,0 4.53,0.87 6.27,2.61 1.74,1.74 2.61,3.83 2.61,6.27l-4.28 0c0,-1.25 -0.45,-2.33 -1.36,-3.23 -0.91,-0.91 -1.99,-1.36 -3.23,-1.36l-6.82 0c-1.25,0 -2.33,0.45 -3.23,1.36 -0.91,0.91 -1.36,1.98 -1.36,3.23 0,1.25 0.45,2.33 1.36,3.23 0.91,0.91 1.99,1.36 3.23,1.36l6.82 0c2.44,0 4.53,0.87 6.27,2.61 1.74,1.74 2.61,3.83 2.61,6.27 0,2.44 -0.87,4.53 -2.61,6.27 -1.74,1.74 -3.83,2.61 -6.27,2.61l-6.82 0c-2.44,0 -4.53,-0.87 -6.27,-2.61 -1.74,-1.74 -2.61,-3.83 -2.61,-6.27l4.28 0c0,1.25 0.45,2.33 1.36,3.23 0.91,0.91 1.99,1.36 3.23,1.36l6.82 0c1.25,0 2.33,-0.45 3.23,-1.36 0.91,-0.91 1.36,-1.99 1.36,-3.23 0,-1.25 -0.45,-2.33 -1.36,-3.23 -0.91,-0.91 -1.99,-1.36 -3.23,-1.36l-6.82 0c-2.44,0 -4.53,-0.87 -6.27,-2.61zm47.79 -10.86c-1.25,0 -2.33,0.45 -3.23,1.36 -0.91,0.91 -1.36,1.98 -1.36,3.23l0 13.47c0,1.25 0.45,2.33 1.36,3.23 0.91,0.91 1.99,1.36 3.23,1.36l0 4.28c-2.44,0 -4.53,-0.87 -6.27,-2.61 -1.74,-1.74 -2.61,-3.83 -2.61,-6.27l0 -13.47c0,-2.44 0.87,-4.53 2.61,-6.27 1.74,-1.74 3.83,-2.61 6.27,-2.61l0 4.28zm21.28 9.19c1.28,0 3.18,0 5.71,0 2.53,0 4.43,0 5.71,0 1.25,0 2.33,-0.45 3.23,-1.36 0.91,-0.91 1.36,-1.99 1.36,-3.23 0,-1.25 -0.45,-2.33 -1.36,-3.23 -0.91,-0.91 -1.99,-1.36 -3.23,-1.36l-11.42 0 0 9.19zm-4.28 -13.47l15.7 0c2.44,0 4.53,0.87 6.27,2.61 1.74,1.74 2.61,3.83 2.61,6.27 0,2.71 -1.04,4.95 -3.12,6.74 2.08,1.78 3.12,4.03 3.12,6.74l0 8.88 -4.28 0 0 -8.88c0,-1.25 -0.45,-2.33 -1.36,-3.23 -0.91,-0.91 -1.99,-1.36 -3.23,-1.36l-11.42 0 0 13.47 -4.28 0 0 -31.22zm27.07 26.94l4.28 0 0 4.28 -4.28 0 0 -4.28zm6.82 -26.94l24.58 0 0 4.28 -20.29 0 0 9.19 15.79 0 0 4.28 -15.79 0 0 9.19 20.29 0 0 4.28 -24.58 0 0 -31.22zm27.07 26.94l4.28 0 0 4.28 -4.28 0 0 -4.28zm11.11 4.28l-4.28 0 0 -31.22 4.28 0 0 31.22zm2.54 -4.28l4.28 0 0 4.28 -4.28 0 0 -4.28zm9.43 -11.8c-1.74,-1.74 -2.61,-3.83 -2.61,-6.27 0,-2.44 0.87,-4.53 2.61,-6.27 1.74,-1.74 3.83,-2.61 6.27,-2.61l6.82 0c2.44,0 4.53,0.87 6.27,2.61 1.74,1.74 2.61,3.83 2.61,6.27l-4.28 0c0,-1.25 -0.45,-2.33 -1.36,-3.23 -0.91,-0.91 -1.99,-1.36 -3.23,-1.36l-6.82 0c-1.25,0 -2.33,0.45 -3.23,1.36 -0.91,0.91 -1.36,1.98 -1.36,3.23 0,1.25 0.45,2.33 1.36,3.23 0.91,0.91 1.99,1.36 3.23,1.36l6.82 0c2.44,0 4.53,0.87 6.27,2.61 1.74,1.74 2.61,3.83 2.61,6.27 0,2.44 -0.87,4.53 -2.61,6.27 -1.74,1.74 -3.83,2.61 -6.27,2.61l-6.82 0c-2.44,0 -4.53,-0.87 -6.27,-2.61 -1.74,-1.74 -2.61,-3.83 -2.61,-6.27l4.28 0c0,1.25 0.45,2.33 1.36,3.23 0.91,0.91 1.99,1.36 3.23,1.36l6.82 0c1.25,0 2.33,-0.45 3.23,-1.36 0.91,-0.91 1.36,-1.99 1.36,-3.23 0,-1.25 -0.45,-2.33 -1.36,-3.23 -0.91,-0.91 -1.99,-1.36 -3.23,-1.36l-6.82 0c-2.44,0 -4.53,-0.87 -6.27,-2.61zm42.57 -15.14c2.44,0 4.53,0.87 6.27,2.61 1.74,1.74 2.61,3.83 2.61,6.27l0 13.47c0,2.44 -0.87,4.53 -2.61,6.27 -1.74,1.74 -3.83,2.61 -6.27,2.61l-3.66 0 0 -4.28 3.66 0c1.25,0 2.33,-0.45 3.23,-1.36 0.91,-0.91 1.36,-1.99 1.36,-3.23l0 -13.47c0,-1.25 -0.45,-2.33 -1.36,-3.23 -0.91,-0.91 -1.99,-1.36 -3.23,-1.36l-3.66 0 0 -4.28 3.66 0z"/>
    <path class="fil2" d="M471.96 254.05l-56.94 0 0 -3.12 56.94 0 0 3.12zm1034.42 0l-55.47 0 0 -3.12 55.47 0 0 3.12z"/>
   </g>
  </g>
  <g id="_2509224623024">
   <path class="fil2" d="M127.79 313.04c-29.06,-23.61 -48.24,-58.9 -50.39,-98.73l9.35 -4.84c61.54,-31.85 130.42,-49.24 199.62,-51.5 5.56,-0.18 11.13,-0.27 16.7,-0.25 5.32,0.01 10.65,0.11 15.97,0.31 0.62,0.02 1.25,0.05 1.87,0.07 3.33,0.13 6.66,0.3 9.98,0.51l10.12 0.63 -1.71 0.77c-79.29,35.47 -151.27,87.31 -209.97,151.34l-1.55 1.69z"/>
   <path class="fil0" d="M160.61 37.83c-0.92,0.82 -30.95,27.35 -46.68,42.42 -2.51,2.4 -5.18,4.65 -7.78,6.99 -22.25,21.95 -47.89,50.41 -56.56,72.42 0,0 0.8,-5.18 -0.31,-6.42 -6.34,0.38 -44.4,66.1 -11.68,77.57 5.57,1.95 12.93,2.36 21.31,1.72 1.08,6.53 2.56,12.96 4.44,19.25 -1.72,0.21 -3.45,0.39 -5.19,0.54 -7.78,0.66 -15.76,0.79 -23.87,-0.48 -4.05,-0.66 -8.19,-1.65 -12.22,-3.32 -4.05,-1.61 -8.03,-3.95 -11.42,-7.18 -1.67,-1.61 -3.21,-3.38 -4.54,-5.31 -1.31,-1.96 -2.39,-4.01 -3.26,-6.17 -1.69,-4.24 -2.54,-8.64 -2.8,-12.93 -0.46,-8.7 1.44,-16.89 4.13,-24.45 2.72,-7.56 6.29,-14.55 10.24,-21.22 8.01,-13.28 17.55,-25.2 27.56,-36.59 10.06,-11.32 20.79,-21.91 31.8,-32.19 11.06,-10.18 22.17,-20.3 34.08,-29.41 33.87,-25.78 52.02,-34.89 52.74,-35.24z"/>
   <path class="fil0" d="M192.13 47.45l3.08 -3.09 -2.39 -11.95 2.46 -2.46c0.69,-0.69 0.69,-1.79 0,-2.47l0 0c-0.67,-0.69 -1.77,-0.69 -2.46,0l-0.82 0.81 -2.34 -11.75 3.64 -3.33c3.08,-2.82 5.39,-6.35 6.75,-10.29 0.59,-1.73 -1.08,-3.38 -2.8,-2.78 -3.93,1.36 -7.47,3.68 -10.26,6.74l-3.34 3.64 -11.75 -2.35 0.8 -0.81c0.69,-0.68 0.69,-1.79 0,-2.47 -0.67,-0.68 -1.77,-0.68 -2.46,0l-2.46 2.46 -11.96 -2.38 -3.08 3.09 21.17 13.1 -6.03 6.57 -10.39 -1.93 -2.28 2.27 7.93 4.85 -0.38 0.42c-1.05,1.15 -1,2.91 0.08,4.01l0 0c1.1,1.1 2.87,1.14 4.03,0.09l0.41 -0.38 4.85 7.92 2.28 -2.27 -1.95 -10.41 6.57 -6.02 13.11 21.17z"/>
   <path class="fil1" d="M342.53 253.09c-15.35,42.77 -49.78,73.21 -90.25,85.17 14.42,-21.67 36.55,-76.65 36.83,-77.39 -10.21,19.48 -50.56,69.12 -76.25,83 -15.14,-0.08 -30.51,-2.67 -45.58,-8.07 -8.11,-2.9 -15.76,-6.5 -22.92,-10.68 56.82,-61.98 126.51,-112.17 203.27,-146.51 5.08,24.01 3.77,49.68 -5.11,74.48zm-10.37 -114.82c-3.46,-0.21 -6.93,-0.39 -10.42,-0.53 -0.64,-0.03 -1.28,-0.06 -1.95,-0.08 -5.54,-0.21 -11.11,-0.31 -16.65,-0.32 -5.8,-0.02 -11.6,0.07 -17.43,0.26 -72.29,2.36 -144.14,20.55 -208.33,53.76 1.16,-10.3 3.54,-20.63 7.19,-30.8 2.26,-6.3 4.93,-12.32 7.98,-18.06 12.42,-11.2 68.37,-42.49 112.58,-58.48 0,0 -48.17,6.6 -77.3,15.88 31.33,-25.07 73.04,-35.86 114.02,-27.15 6,1.27 12.01,2.97 17.96,5.1 6.54,2.35 12.81,5.15 18.76,8.36 2.98,1.59 5.85,3.28 8.65,5.07 10.14,6.45 19.25,14.12 27.15,22.75 2.26,2.46 4.44,5 6.49,7.61 2.18,2.76 4.26,5.6 6.24,8.52 1.8,2.65 3.46,5.35 5.06,8.11z"/>
   <path class="fil0" d="M264.35 56.57c32.1,5.3 54.2,21.35 69.88,49.5 -18.35,-26.36 -41.62,-42.87 -69.88,-49.5zm97.82 21.23l-28.43 -45.88 -105.39 -23.21 27.46 44.34 -6.95 9.82c5.65,1.28 11.24,2.91 16.73,4.88 6.67,2.39 13.19,5.29 19.35,8.61 3.03,1.62 6.03,3.38 8.9,5.23 10.32,6.56 19.73,14.45 28,23.45 2.34,2.55 4.59,5.19 6.7,7.84 1.9,2.42 3.75,4.91 5.52,7.47l5.59 -7.9 21.33 4.69 7.98 1.76 2.28 0.5 4.54 1 14.81 3.26 -28.41 -45.87z"/>
  </g>
 </g>
</svg>
